<?xml version="1.0" encoding="utf-8"?>
<!-- Generator: Adobe Illustrator 24.2.0, SVG Export Plug-In . SVG Version: 6.00 Build 0)  -->
<svg version="1.1" id="Layer_1" xmlns="http://www.w3.org/2000/svg" xmlns:xlink="http://www.w3.org/1999/xlink" x="0px" y="0px"
	 viewBox="0 0 512 512" style="enable-background:new 0 0 512 512;" xml:space="preserve">
<style type="text/css">
	.st0{fill-rule:evenodd;clip-rule:evenodd;fill:#606060;}
	.st1{fill:#606060;}
	.st2{opacity:0.8;fill:#606060;enable-background:new    ;}
	.st3{opacity:0.8;fill-rule:evenodd;clip-rule:evenodd;fill:#606060;enable-background:new    ;}
</style>
<g>
	<path class="st0" d="M338.6,134.1c-2.1,0-3.7,0.3-5.1,0.5v0.3h0.3c1.1,1.9,2.7,3.5,4,5.1c1.1,1.9,1.9,4,2.9,5.9l0.3-0.3
		c1.9-1.3,2.7-3.2,2.7-6.2c-0.8-0.8-0.8-1.9-1.6-2.7C341.3,135.7,339.7,135.1,338.6,134.1"/>
	<g>
		<path class="st1" d="M139.1,381.4h-17.4c-0.5-29.2-2.4-56.8-5.1-82.7h-0.3l-26.5,82.7H76.8l-26.2-82.7h-0.3
			c-1.9,24.9-3.2,52.2-3.7,82.7H31c1.1-36.9,3.5-71.5,7.8-103.6h21.4l25.2,76.3h0.3l25.2-76.3h20.6
			C135.7,315.6,138.3,350.1,139.1,381.4"/>
		<path class="st1" d="M214.6,304.9c-7,38.3-16.3,66.1-27.8,83.5c-9.1,13.4-19,20.1-29.7,20.1c-2.9,0-6.4-0.8-10.7-2.7v-9.4
			c2.1,0.3,4.6,0.5,7.2,0.5c5.1,0,9.1-1.3,12-4.3c3.7-3.5,5.6-7.2,5.6-11.2c0-2.9-1.3-8.8-4.3-17.7l-19-58.9h17.1l13.7,44.2
			c2.9,10.2,4.3,17.1,3.7,21.1c7.5-20.1,12.6-41.8,15.8-65.3H214.6z"/>
		<polygon class="st2" points="445.7,381.4 396.1,381.4 396.1,277.8 412.7,277.8 412.7,368.6 445.7,368.6 		"/>
		<path class="st3" d="M383.3,383.8l-19-9.4c1.6-1.3,3.2-2.9,4.8-4.6c8-9.6,12-23.6,12-42.3c0-34.3-13.4-51.4-40.4-51.4
			c-13.1,0-23.6,4.3-30.8,13.1c-8,9.6-12,23.6-12,42c0,18.2,3.5,31.6,10.7,40.2c6.4,7.8,16.3,11.5,29.7,11.5c4.8,0,9.4-0.5,13.7-1.9
			l24.9,14.5L383.3,383.8z M321.7,360.5c-4.3-6.7-6.4-17.7-6.4-32.7c0-26.2,8-39.1,23.8-39.1c8.3,0,14.5,3.2,18.2,9.4
			c4.3,6.7,6.4,17.4,6.4,32.4c0,26.2-8,39.6-23.8,39.6C331.6,369.9,325.5,367,321.7,360.5"/>
		<path class="st2" d="M290.7,352.8c0,8.8-3.2,16.1-9.6,21.7c-6.4,5.6-15,8.6-26,8.6c-10.2,0-20.1-3.2-29.4-9.6l4.6-8.8
			c8.3,4,15.5,6.2,22.2,6.2c6.2,0,11.2-1.3,14.7-4c3.5-2.7,5.6-6.7,5.6-11.5c0-6.2-4.3-11.5-12-15.8c-7.2-4-21.7-12.3-21.7-12.3
			c-7.8-5.6-11.8-11.8-11.8-22c0-8.3,2.9-15.3,8.8-20.3c5.9-5.1,13.4-7.8,22.8-7.8c9.6,0,18.5,2.7,26.2,7.8l-4,8.8
			c-6.7-2.9-13.4-4.3-20.1-4.3c-5.4,0-9.4,1.3-12.3,3.7c-2.9,2.7-4.6,5.9-4.6,9.9c0,6.2,4.3,11.5,12.6,16.1
			c7.5,4,22.2,12.6,22.2,12.6C286.4,336.4,290.7,342.6,290.7,352.8"/>
		<path class="st0" d="M466.3,243c-9.9-0.3-17.7,0.8-24.4,3.5c-1.9,0.8-4.8,0.8-5.1,3.2c1.1,1.1,1.1,2.7,2.1,4
			c1.6,2.4,4,5.9,6.4,7.8c2.7,1.9,5.4,4,8,5.9c4.8,2.9,10.4,4.8,15.3,7.8c2.7,1.9,5.6,4,8.3,5.9c1.3,1.1,2.1,2.7,4,3.2V284
			c-0.8-1.1-1.1-2.7-1.9-4c-1.3-1.3-2.4-2.4-3.7-3.7c-3.7-4.8-8-9.1-13.1-12.6c-4-2.7-12.8-6.4-14.5-11.2c0,0,0,0-0.3-0.3
			c2.7-0.3,5.9-1.3,8.6-2.1c4.3-1.1,8-0.8,12.6-1.9c2.1-0.5,4-1.1,6.2-1.9v-1.1c-2.1-2.1-4-5.4-6.2-7.5c-6.4-5.6-13.4-11-20.6-15.5
			c-4-2.4-8.8-4-13.1-6.2c-1.6-0.8-4-1.1-4.8-2.4c-2.1-2.7-3.5-6.4-5.1-9.6c-3.7-7-7.2-14.5-10.2-21.7c-2.1-4.8-3.7-9.6-6.4-14.2
			c-12.8-21.4-27-34.3-48.5-46.8c-4.6-2.7-10.2-3.7-16.1-5.1c-3.2,0-6.2-0.3-9.4-0.5c-2.1-0.8-4-3.2-5.9-4.3
			c-7.2-4.6-25.4-14.2-30.8-1.3c-3.5,8,5.1,16.1,7.8,20.3c2.1,2.9,4.8,6.2,6.4,9.4c0.8,2.1,1.1,4.3,2.1,6.7
			c1.9,5.6,3.7,11.8,6.4,16.9c1.3,2.7,2.9,5.4,4.6,7.8c1.1,1.3,2.7,1.9,3.2,4.3c-1.9,2.4-1.9,6.2-2.9,9.4c-4.6,14.2-2.7,31.6,3.7,42
			c1.9,3.2,6.7,9.9,13.1,7.5c5.6-2.1,4.3-9.4,5.9-15.5c0.3-1.6,0-2.4,0.8-3.5v0.3c1.9,3.5,3.5,7,5.1,10.4c4,6.2,10.7,12.6,16.3,16.9
			c2.9,2.1,5.4,6.2,9.1,7.5v-1.3h-0.3c-0.8-1.1-1.9-1.6-2.9-2.4c-2.1-2.1-4.8-5.1-6.4-7.5c-5.4-7-9.9-14.7-13.9-22.8
			c-2.1-4-3.7-8-5.4-12c-0.8-1.6-0.8-3.7-1.9-4.6c-1.9,2.7-4.6,5.1-5.9,8.6c-2.4,5.4-2.7,12-3.5,19c-0.5,0-0.3,0-0.5,0.3
			c-4-1.1-5.4-5.1-7-8.6c-3.7-8.8-4.3-23.3-1.1-33.5c0.8-2.7,4.6-11,3.2-13.4c-0.8-2.4-3.2-3.7-4.6-5.6c-1.6-2.4-3.5-5.4-4.6-8
			c-2.9-7-4.6-14.7-7.8-21.7c-1.6-3.2-4-6.7-6.2-9.6c-2.4-3.5-5.1-5.9-7-9.6c-0.5-1.3-1.6-3.7-0.5-5.1c0.3-1.1,0.8-1.3,1.9-1.6
			c1.6-1.3,6.2,0.3,7.8,1.1c4.6,1.9,8.6,3.7,12.3,6.2c1.9,1.3,3.7,3.7,5.9,4.3h2.7c4,0.8,8.6,0.3,12.3,1.3
			c6.7,2.1,12.6,5.4,17.9,8.6c16.3,10.4,30,25.2,39.1,42.8c1.6,2.9,2.1,5.6,3.5,8.6c2.7,6.2,5.9,12.3,8.6,18.5
			c2.7,5.9,5.1,11.8,8.8,16.9c1.9,2.7,9.4,4,12.8,5.4c2.4,1.1,6.4,2.1,8.6,3.5c4.3,2.7,8.6,5.6,12.6,8.6
			C459.9,237.4,466,240.3,466.3,243"/>
		<path class="st2" d="M478.3,381.4h2.7v-12.6h-4l-3.2,8.6l-3.5-8.6h-3.7v12.6h2.4v-9.6h0.3l3.7,9.6h1.9l3.5-9.6V381.4z
			 M457.4,381.4h2.7V371h3.5v-2.1h-10.2v2.1h3.7v10.4H457.4z"/>
	</g>
</g>
</svg>
